# xmcd
# Copyright (C) 1995-1998 Ti Kan
#
# Track frame offsets:
#       150
#       17516
#       33403
#       49468
#       66246
#       87328
#
# Disc length: 1389 seconds
#
# Revision: 0
# Processed by: cddbd v1.5.2PL0 Copyright (c) Steve Scherf et al.
# Submitted via: CD-Import v1.0
#
DISCID=4a056b06
DTITLE=Zebra Baby - Zebra Baby
DYEAR=09
DGENRE=
TTITLE0=W.a.r.
TTITLE1=+1
TTITLE2=Yumbo
TTITLE3=W.a.r. (Chris De Luca Remix)
TTITLE4=+1 (Schlachthof Bronx Remix)
TTITLE5=Bonus Track
EXTD=
EXTT0=
EXTT1=
EXTT2=
EXTT3=
EXTT4=
EXTT5=
PLAYORDER=
